<?xml version="1.0" encoding="UTF-8"?> <svg xmlns="http://www.w3.org/2000/svg" id="Слой_1" data-name="Слой 1" viewBox="0 0 370.88 313.1"><defs><style>.cls-2{fill:#ffc136}</style></defs><path d="M26.56 293.25H14.13l-1.84 5.63H0l13.63-37.26h13.5l13.59 37.26H28.4zm-2.85-8.79l-3.37-10.37L17 284.46zm28.96-6.59v8.64h-8.34v-8.64zm26.12 12.22v8.79h-4.47Q63 298.88 63 287.67v-9.74h-3.63v-8.58H63v-7.16h10.37v7.16h5.37v8.58h-5.37v9.9a2.35 2.35 0 00.55 1.74 2.68 2.68 0 001.87.52zm33.72-3.89H93a5.45 5.45 0 001.35 3.6 4.08 4.08 0 003 1.19 3.8 3.8 0 003.69-2.32h11a12.87 12.87 0 01-2.66 5.45 13.66 13.66 0 01-5 3.76 15.68 15.68 0 01-6.64 1.37 16 16 0 01-7.74-1.84 13.23 13.23 0 01-5.32-5.27 17.88 17.88 0 010-16.08 13.06 13.06 0 015.32-5.23 17.52 17.52 0 0115.55-.06 13 13 0 015.27 5.14 15.73 15.73 0 011.89 7.87 18 18 0 01-.2 2.42zm-10.37-5a3.71 3.71 0 00-1.26-3 4.7 4.7 0 00-3.16-1.08 4.64 4.64 0 00-3.1 1 4.93 4.93 0 00-1.58 3zm15.64-5.11a12.67 12.67 0 014.53-5.26 11.57 11.57 0 016.4-1.85 10.79 10.79 0 015.29 1.22 8.73 8.73 0 013.42 3.26v-4.11h10.32v29.53h-10.35v-4.1a8.75 8.75 0 01-3.45 3.26 10.77 10.77 0 01-5.23 1.21 11.56 11.56 0 01-6.4-1.84 12.64 12.64 0 01-4.53-5.29 18.43 18.43 0 01-1.66-8 18.23 18.23 0 011.66-8.03zm18.06 3.53a5.35 5.35 0 00-7.66 0 6.26 6.26 0 00-1.53 4.5 6.36 6.36 0 001.53 4.5 5 5 0 003.84 1.66 5.07 5.07 0 003.82-1.63 6.33 6.33 0 001.55-4.53 6.25 6.25 0 00-1.55-4.5zm66.04-7.16c2.12 2.24 3.18 5.32 3.18 9.21v17.21h-10.31V283a5 5 0 00-1.32-3.69 5.55 5.55 0 00-7.16 0A5 5 0 00185 283v15.84h-10.36V283a5.06 5.06 0 00-1.29-3.69 4.78 4.78 0 00-3.55-1.31 5 5 0 00-3.64 1.31 5 5 0 00-1.31 3.69v15.84h-10.32v-29.49h10.32v3.9a9.88 9.88 0 013.55-3 10.84 10.84 0 015-1.13 11.71 11.71 0 015.81 1.42 10.33 10.33 0 014 4 12.22 12.22 0 014.16-3.92 11.09 11.09 0 015.68-1.5q5.64-.03 8.83 3.34zm29.3-1.27a10.87 10.87 0 014.18 4.11V270h4.84v29.48a14.4 14.4 0 01-1.68 7 12 12 0 01-4.82 4.82 14.72 14.72 0 01-7.29 1.74 16 16 0 01-9.47-2.69 10.5 10.5 0 01-4.48-7.32h4.74a7.55 7.55 0 003.27 4.24 10.66 10.66 0 005.94 1.61 8.78 8.78 0 006.45-2.48 9.31 9.31 0 002.5-6.94v-6.06a11.48 11.48 0 01-4.21 4.21 12.31 12.31 0 01-6.53 1.69 13.13 13.13 0 01-11.89-7.22 16.45 16.45 0 01-1.79-7.79 16.13 16.13 0 011.79-7.76 12.87 12.87 0 014.92-5.18 13.48 13.48 0 017-1.85 12.92 12.92 0 016.53 1.69zm2.87 7.53a9.36 9.36 0 00-3.56-3.71 10 10 0 00-9.81 0 9.15 9.15 0 00-3.53 3.68 11.68 11.68 0 00-1.32 5.68 12 12 0 001.32 5.77 9.31 9.31 0 003.53 3.74 9.51 9.51 0 004.89 1.29 9.67 9.67 0 004.92-1.29 9.32 9.32 0 003.56-3.74 12 12 0 001.31-5.71 11.83 11.83 0 00-1.31-5.71zm19.05-18.79v38.95h-4.79v-38.95zm13.4 37.58a13 13 0 01-5.16-5.23 16 16 0 01-1.87-7.87 15.6 15.6 0 011.92-7.82 13.26 13.26 0 015.24-5.21 16 16 0 0114.84 0 13.31 13.31 0 015.24 5.18 16.85 16.85 0 010 15.72 13.65 13.65 0 01-5.35 5.23 15.26 15.26 0 01-7.47 1.85 14.74 14.74 0 01-7.39-1.85zm12.18-3.57a9.21 9.21 0 003.66-3.64 11.62 11.62 0 001.4-5.89 11.86 11.86 0 00-1.37-5.9 9 9 0 00-3.58-3.6 10.3 10.3 0 00-9.61 0 8.69 8.69 0 00-3.5 3.6 12.19 12.19 0 00-1.32 5.9 12.55 12.55 0 001.29 5.95 8.58 8.58 0 003.45 3.6 9.7 9.7 0 004.74 1.19 10.19 10.19 0 004.84-1.21zm25.37-22.75a12.89 12.89 0 016.48-1.63 13.46 13.46 0 017 1.85 12.93 12.93 0 014.89 5.18 16.13 16.13 0 011.79 7.76 16.45 16.45 0 01-1.79 7.79 13.13 13.13 0 01-11.89 7.22 12.85 12.85 0 01-6.56-1.64 11 11 0 01-4.23-4.15v5.31H295v-38.95h4.79v15.48a11.36 11.36 0 014.26-4.22zm13.95 7.48a9.07 9.07 0 00-3.55-3.68 9.75 9.75 0 00-4.92-1.27 9.56 9.56 0 00-4.87 1.29 9.43 9.43 0 00-3.58 3.74 11.52 11.52 0 00-1.34 5.66 11.64 11.64 0 001.34 5.71 9.43 9.43 0 003.58 3.74 9.56 9.56 0 004.87 1.29 9.67 9.67 0 004.92-1.29 9.23 9.23 0 003.55-3.74 12 12 0 001.32-5.77 11.68 11.68 0 00-1.32-5.68zm12.53-2.08a12.87 12.87 0 014.92-5.18 13.49 13.49 0 017-1.85 12.9 12.9 0 016.58 1.63 11 11 0 014.16 4.11V270H358v28.84h-4.84v-5.37a11.37 11.37 0 01-4.24 4.19 12.74 12.74 0 01-6.56 1.66 13 13 0 01-6.94-1.9 13.21 13.21 0 01-4.9-5.32 16.57 16.57 0 01-1.79-7.79 16.25 16.25 0 011.8-7.72zm21.32 2.13a9.34 9.34 0 00-3.55-3.72 9.73 9.73 0 00-4.93-1.29 9.59 9.59 0 00-4.89 1.27 9.22 9.22 0 00-3.53 3.68 11.68 11.68 0 00-1.31 5.68 12 12 0 001.31 5.77 9.38 9.38 0 003.53 3.74 9.51 9.51 0 004.89 1.29 9.73 9.73 0 004.93-1.29 9.29 9.29 0 003.55-3.74 11.86 11.86 0 001.32-5.71 11.72 11.72 0 00-1.32-5.68zm19.05-18.79v38.95h-4.79v-38.95z" transform="translate(-.03)" fill="#301e1d"></path><path class="cls-2" d="M162.78 58.89L214.16 110a23.19 23.19 0 0032.73 0l61.23-61.15V0l-61.23 61.15a23.18 23.18 0 01-32.73 0l-51.38-51.1a23.17 23.17 0 00-32.23-.45L62.81 73.36v48.83l67.74-63.75a23.17 23.17 0 0132.23.45z" transform="translate(-.03)"></path><path d="M214.16 110l-51.38-51.11a23.17 23.17 0 00-32.23-.45l-67.74 63.75v48.63l67.74-63.75a23.17 23.17 0 0132.23.45l51.38 51.12a23.18 23.18 0 0032.73 0l61.23-61.15V48.84L246.89 110a23.19 23.19 0 01-32.73 0z" transform="translate(-.03)" fill="#ff6e3b"></path><path d="M246.89 158.61a23.18 23.18 0 01-32.73 0l-51.38-51.12a23.17 23.17 0 00-32.23-.45l-67.74 63.78v58.66l33.83-32.77h100.21l13.15 13.4a29.64 29.64 0 0042.62-.42l55.46-58.51V97.46zm-123.71 9.74l18.37-20.15a7.47 7.47 0 0111.23.23l16.77 19.92z" transform="translate(-.03)" fill="#96193b"></path><path class="cls-2" d="M141.55 148.2l-18.37 20.15h46.37l-16.77-19.92a7.47 7.47 0 00-11.23-.23z" transform="translate(-.03)"></path></svg> 